Patient4_TMGait_0pt8_01_right_48_GRF.mot
version=1
nRows=71
nColumns=19
inDegrees=no
endheader
time	F1x	F1y	F1z	M1x	M1y	M1z	F2x	F2y	F2z	M2x	M2y	M2z	EC1x	EC1y	EC1z	EC2x	EC2y	EC2z
54.03	6.2518	709.4747	68.1783	-262.9909	-64.2911	795.259	-15.4281	6.2044	-1.8043	2.6749	5.6994	14.7549	-0.0592	0.0182	-0.0073	-0.0462	0.0165	0.9585
54.0414	5.1268	715.6234	66.1491	-263.8821	-64.1297	797.495	-10.5951	5.1981	-1.3778	2.2084	4.0701	11.0918	-0.0592	0.0182	-0.0073	-0.0462	0.0165	0.9585
54.0527	4.4158	721.5848	64.7284	-264.5129	-64.0448	799.3943	-6.5086	4.3657	-0.98878	1.8108	2.6825	8.0412	-0.0592	0.0182	-0.0073	-0.0462	0.0165	0.9585
54.0641	4.2587	726.8713	63.9903	-264.7526	-64.015	800.6067	-3.3607	3.7521	-0.67679	1.5095	1.6089	5.7449	-0.0592	0.0182	-0.0073	-0.0462	0.0165	0.9585
54.0754	4.6716	731.0995	63.9424	-264.5056	-64.0835	800.807	-1.2113	3.3816	-0.44877	1.3123	0.86283	4.2457	-0.0592	0.0182	-0.0073	-0.0462	0.0165	0.9585
54.0868	5.6071	733.9735	64.4166	-263.7151	-64.1949	799.69	0.13523	3.2056	-0.30235	1.2008	0.39773	3.3949	-0.0592	0.0182	-0.0073	-0.0462	0.0165	0.9585
54.0981	6.9563	735.2991	65.2997	-262.3615	-64.3651	797.0215	0.81862	3.1909	-0.21978	1.1557	0.16308	3.0832	-0.0592	0.0182	-0.0073	-0.0462	0.0165	0.9585
54.1095	8.657	735.0178	66.3829	-260.4751	-64.5044	792.6996	1.0742	3.2173	-0.1972	1.1351	0.097833	3.0459	-0.0592	0.0182	-0.0073	-0.0462	0.0165	0.9585
54.1209	10.6588	733.2376	67.5637	-258.1364	-64.592	786.7751	1.0246	3.2161	-0.21709	1.1065	0.15502	3.1184	-0.0592	0.0182	-0.0073	-0.0462	0.0165	0.9585
54.1322	12.97	730.2422	68.7211	-255.4816	-64.5486	779.4921	0.83167	3.0422	-0.27999	1.0188	0.29695	3.0287	-0.0592	0.0182	-0.0073	-0.0462	0.0165	0.9585
54.1436	15.6725	726.5141	69.8282	-252.6983	-64.3422	771.3054	0.54998	2.6135	-0.37734	0.83514	0.50504	2.6319	-0.0592	0.0182	-0.0073	-0.0462	0.0165	0.9585
54.1549	18.8293	722.7052	70.9006	-250.0198	-63.9719	762.8539	0.27827	1.7904	-0.50899	0.50869	0.75376	1.6967	-0.0592	0.0182	-0.0073	-0.0462	0.0165	0.9585
54.1663	22.5237	719.6265	71.9926	-247.7232	-63.4614	754.9401	0.048077	0.51092	-0.66711	0.015267	1.0205	0.13575	-0.0592	0.0182	-0.0073	-0.0462	0.0165	0.9585
54.1776	26.7853	718.1707	73.178	-246.1055	-62.8593	748.4566	-0.059952	-1.2739	-0.82334	-0.65853	1.242	-2.1328	-0.0592	0.0182	-0.0073	-0.0462	0.0165	0.9585
54.189	31.6225	719.1748	74.4896	-245.4443	-62.1777	744.2194	-0.013482	-3.4837	-0.93154	-1.482	1.34	-4.9903	-0.0592	0.0182	-0.0073	-0.0462	0.0165	0.9585
54.2004	36.9731	723.2461	75.9666	-245.938	-61.4471	742.8582	0.27516	-5.903	-0.92253	-2.3667	1.1862	-8.1622	-0.0592	0.0182	-0.0073	-0.0462	0.0165	0.9585
54.2117	42.7367	730.579	77.5669	-247.6429	-60.642	744.5778	0.86647	-8.0287	-0.70464	-3.1199	0.63377	-10.9872	-0.0592	0.0182	-0.0073	-0.0462	0.0165	0.9585
54.2231	48.6979	740.8451	79.2486	-250.4299	-59.7761	749.1077	1.8602	-9.0563	-0.15511	-3.428	-0.51022	-12.4134	-0.0592	0.0182	-0.0073	-0.0462	0.0165	0.9585
54.2344	54.6663	753.1578	80.8927	-253.98	-58.804	755.6227	3.317	-7.7518	0.86171	-2.8177	-2.4406	-10.7978	-0.0592	0.0182	-0.0073	-0.0462	0.0165	0.9585
54.2458	60.3807	766.1769	82.3851	-257.8224	-57.7118	762.8666	5.2475	-2.4601	2.4789	-0.65621	-5.3239	-3.9747	-0.0592	0.0182	-0.0073	-0.0462	0.0165	0.9585
54.2571	65.7313	778.2333	83.5667	-261.3897	-56.4142	769.2429	7.5349	8.8663	4.7811	3.8296	-9.2108	10.7369	-0.0592	0.0182	-0.0073	-0.0462	0.0165	0.9585
54.2685	70.669	787.55	84.2703	-264.0854	-54.7908	773.0704	9.883	28.4257	7.7454	11.4593	-13.9383	36.2198	-0.0592	0.0182	-0.0073	-0.0462	0.0165	0.9585
54.2799	75.2372	792.3076	84.2834	-265.3116	-52.6526	772.6197	11.7098	58.1395	11.1595	22.9304	-18.983	75.0123	-0.0592	0.0182	-0.0073	-0.0462	0.0165	0.9585
54.2912	79.4396	790.7095	83.3656	-264.4815	-49.7968	766.2473	12.1121	98.9411	14.4867	38.5419	-23.2739	128.3756	-0.0592	0.0182	-0.0073	-0.0462	0.0165	0.9585
54.3026	83.2081	781.0103	81.2558	-261.0287	-46.0328	752.3513	9.6421	149.8768	16.8241	57.8539	-25.0839	195.1104	-0.0592	0.0182	-0.0073	-0.0462	0.0165	0.9585
54.3139	86.2971	761.639	77.7273	-254.4414	-41.262	729.5607	3.0563	207.5698	17.0022	79.5019	-22.4712	270.8675	-0.0592	0.0182	-0.0073	-0.0462	0.0165	0.9585
54.3253	88.3673	731.3892	72.6422	-244.325	-35.5095	696.8622	-7.251	266.6216	14.2256	101.4062	-14.6513	348.5454	-0.0592	0.0182	-0.0073	-0.0462	0.0165	0.9585
54.3366	88.9457	689.6821	66.0222	-230.4798	-28.9809	653.8649	-19.4178	321.0003	8.7757	121.3478	-2.7279	419.9896	-0.0592	0.0182	-0.0073	-0.0462	0.0165	0.9585
54.348	87.6147	636.7714	58.1021	-212.9696	-22.0452	600.9265	-31.2619	366.9362	1.4975	137.983	11.3224	479.9526	-0.0592	0.0182	-0.0073	-0.0462	0.0165	0.9585
54.3594	84.0253	574.0147	49.2851	-192.2048	-15.1826	539.4506	-41.536	404.4999	-6.4799	151.3929	25.596	528.2891	-0.0592	0.0182	-0.0073	-0.0462	0.0165	0.9585
54.3707	78.0518	503.7719	40.1314	-168.9271	-8.9245	471.6954	-49.7024	436.298	-14.5024	162.5808	39.0415	568.3318	-0.0592	0.0182	-0.0073	-0.0462	0.0165	0.9585
54.3821	69.7865	429.2937	31.233	-144.1749	-3.7529	400.7398	-55.6531	465.5464	-21.9443	172.7818	50.8417	604.3033	-0.0592	0.0182	-0.0073	-0.0462	0.0165	0.9585
54.3934	59.6139	354.308	23.1069	-119.1711	0.023187	329.9898	-59.5	494.8478	-28.3711	182.9767	60.5326	639.6617	-0.0592	0.0182	-0.0073	-0.0462	0.0165	0.9585
54.4048	48.2033	282.6659	16.1071	-95.2032	2.334	262.9221	-61.5792	525.4402	-33.7896	193.6215	68.2413	676.1201	-0.0592	0.0182	-0.0073	-0.0462	0.0165	0.9585
54.4161	36.5199	217.7429	10.457	-73.4206	3.3257	202.497	-62.3135	557.466	-38.4231	204.7356	74.4334	713.9386	-0.0592	0.0182	-0.0073	-0.0462	0.0165	0.9585
54.4275	25.5363	161.8648	6.2164	-54.6297	3.2957	150.7018	-62.1662	590.2388	-42.8419	216.0203	79.9591	752.3597	-0.0592	0.0182	-0.0073	-0.0462	0.0165	0.9585
54.4389	16.0265	115.9866	3.326	-39.1753	2.5729	108.2536	-61.4871	622.6337	-47.4124	227.0399	85.4256	790.0381	-0.0592	0.0182	-0.0073	-0.0462	0.0165	0.9585
54.4502	8.3309	79.8533	1.5398	-26.9899	1.4975	74.8316	-60.5509	653.4909	-52.4615	237.3577	91.3081	825.5614	-0.0592	0.0182	-0.0073	-0.0462	0.0165	0.9585
54.4616	2.4744	52.4567	0.6045	-17.7424	0.30106	49.4496	-59.5506	681.7238	-57.9071	246.6071	97.586	857.569	-0.0592	0.0182	-0.0073	-0.0462	0.0165	0.9585
54.4729	-1.6599	32.4465	0.21524	-10.9813	-0.78778	30.8643	-58.6078	706.6045	-63.4592	254.5703	103.9386	885.1385	-0.0592	0.0182	-0.0073	-0.0462	0.0165	0.9585
54.4843	-4.1923	18.3797	0.12602	-6.2241	-1.5966	17.7372	-57.7204	727.7755	-68.6405	261.1832	109.7905	907.8066	-0.0592	0.0182	-0.0073	-0.0462	0.0165	0.9585
54.4956	-5.2757	8.9414	0.12643	-3.0306	-1.9888	8.8845	-56.8534	745.1065	-73.0169	266.4581	114.6051	925.4334	-0.0592	0.0182	-0.0073	-0.0462	0.0165	0.9585
54.507	-5.1807	3.014	0.12963	-1.0294	-1.9845	3.288	-55.9257	758.5322	-76.3788	270.4089	118.0948	937.9506	-0.0592	0.0182	-0.0073	-0.0462	0.0165	0.9585
54.5184	-4.4676	-0.22118	0.12651	0.05563	-1.7592	0.22666	-54.894	767.9193	-78.716	273.0047	120.2257	945.239	-0.0592	0.0182	-0.0073	-0.0462	0.0165	0.9585
54.5297	-3.4945	-1.587	0.13447	0.4991	-1.4558	-1.0487	-53.6946	773.1651	-80.1627	274.2128	121.1269	947.2387	-0.0592	0.0182	-0.0073	-0.0462	0.0165	0.9585
54.5411	-2.5339	-1.7592	0.15022	0.53178	-1.158	-1.1776	-52.2792	774.494	-80.8493	274.1113	120.9432	944.2705	-0.0592	0.0182	-0.0073	-0.0462	0.0165	0.9585
54.5524	-1.701	-1.2718	0.17193	0.33773	-0.90479	-0.691	-50.6127	772.5187	-80.9171	272.9175	119.8348	937.1016	-0.0592	0.0182	-0.0073	-0.0462	0.0165	0.9585
54.5638	-1.0582	-0.50108	0.20212	0.048564	-0.71715	0.06602	-48.6369	768.2238	-80.4888	270.9758	117.95	926.9319	-0.0592	0.0182	-0.0073	-0.0462	0.0165	0.9585
54.5751	-0.6004	0.31874	0.21654	-0.25196	-0.57508	0.85866	-46.3812	762.6706	-79.6984	268.6587	115.4743	915.0481	-0.0592	0.0182	-0.0073	-0.0462	0.0165	0.9585
54.5865	-0.30732	1.0584	0.22435	-0.51531	-0.48001	1.5941	-43.8576	756.8652	-78.6804	266.3144	112.591	902.6642	-0.0592	0.0182	-0.0073	-0.0462	0.0165	0.9585
54.5979	-0.13163	1.6724	0.20021	-0.72693	-0.39593	2.2334	-41.1318	751.6641	-77.5471	264.2378	109.472	890.8103	-0.0592	0.0182	-0.0073	-0.0462	0.0165	0.9585
54.6092	-0.061098	2.16	0.17315	-0.88788	-0.34192	2.781	-38.2785	747.722	-76.4051	262.6524	106.2836	880.2536	-0.0592	0.0182	-0.0073	-0.0462	0.0165	0.9585
54.6206	-0.047513	2.5528	0.12861	-1.011	-0.28828	3.2638	-35.3999	745.4969	-75.3258	261.708	103.1608	871.5345	-0.0592	0.0182	-0.0073	-0.0462	0.0165	0.9585
54.6319	-0.076858	2.8777	0.097329	-1.1076	-0.25921	3.6898	-32.5687	745.1135	-74.3623	261.4452	100.1994	864.7886	-0.0592	0.0182	-0.0073	-0.0462	0.0165	0.9585
54.6433	-0.14103	3.1331	0.071027	-1.1819	-0.24476	4.0441	-29.8317	746.4704	-73.5199	261.8248	97.4266	859.8958	-0.0592	0.0182	-0.0073	-0.0462	0.0165	0.9585
54.6546	-0.22543	3.3165	0.063239	-1.2344	-0.25704	4.3141	-27.151	749.2051	-72.7656	262.7219	94.794	856.4225	-0.0592	0.0182	-0.0073	-0.0462	0.0165	0.9585
54.666	-0.35908	3.3997	0.074206	-1.2588	-0.31016	4.4543	-24.4546	752.7855	-72.0231	263.9484	92.1923	853.772	-0.0592	0.0182	-0.0073	-0.0462	0.0165	0.9585
54.6774	-0.52796	3.3538	0.10613	-1.244	-0.41389	4.416	-21.5923	756.5202	-71.1936	265.259	89.467	851.1568	-0.0592	0.0182	-0.0073	-0.0462	0.0165	0.9585
54.6887	-0.7455	3.131	0.16603	-1.1681	-0.57832	4.1352	-18.4253	759.6315	-70.1881	266.3712	86.4749	847.7349	-0.0592	0.0182	-0.0073	-0.0462	0.0165	0.9585
54.7001	-1.0053	2.6532	0.24398	-0.99806	-0.78918	3.4859	-14.8269	761.3355	-68.9615	266.9947	83.1212	842.6772	-0.0592	0.0182	-0.0073	-0.0462	0.0165	0.9585
54.7114	-1.3053	1.8325	0.3518	-0.6916	-1.0468	2.3734	-10.7722	760.9822	-67.533	266.874	79.4087	835.3692	-0.0592	0.0182	-0.0073	-0.0462	0.0165	0.9585
54.7228	-1.6078	0.55774	0.46778	-0.20066	-1.3122	0.66563	-6.2583	758.1095	-65.9597	265.8189	75.3904	825.41	-0.0592	0.0182	-0.0073	-0.0462	0.0165	0.9585
54.7341	-1.8723	-1.2397	0.58925	0.50782	-1.5589	-1.6993	-1.3869	752.602	-64.3494	263.7524	71.2041	812.8064	-0.0592	0.0182	-0.0073	-0.0462	0.0165	0.9585
54.7455	-1.9685	-3.5718	0.68709	1.4366	-1.7076	-4.7331	3.7085	744.614	-62.8233	260.7047	67.0196	797.8329	-0.0592	0.0182	-0.0073	-0.0462	0.0165	0.9585
54.7569	-1.783	-6.3118	0.73785	2.5315	-1.6751	-8.2662	8.8167	734.643	-61.5373	256.8338	63.0649	781.1432	-0.0592	0.0182	-0.0073	-0.0462	0.0165	0.9585
54.7682	-1.0906	-9.1163	0.68452	3.6474	-1.3094	-11.877	13.7344	723.4415	-60.6219	252.4068	59.5457	763.5888	-0.0592	0.0182	-0.0073	-0.0462	0.0165	0.9585
54.7796	0.32365	-11.3188	0.46595	4.5129	-0.44015	-14.716	18.2287	711.9917	-60.1761	247.7826	56.6452	746.2324	-0.0592	0.0182	-0.0073	-0.0462	0.0165	0.9585
54.7909	2.7221	-11.8444	-0.0079725	4.6932	1.1524	-15.4317	22.2089	701.3011	-60.2316	243.3419	54.4409	730.0973	-0.0592	0.0182	-0.0073	-0.0462	0.0165	0.9585
54.8023	6.3017	-9.1057	-0.83237	3.5589	3.6699	-11.9813	25.6447	692.2094	-60.7673	239.4118	52.9299	715.9981	-0.0592	0.0182	-0.0073	-0.0462	0.0165	0.9585
54.8136	11.1514	-1.0237	-2.1014	0.28513	7.2569	-1.7166	28.6856	685.1846	-61.707	236.1911	52.0055	704.3022	-0.0592	0.0182	-0.0073	-0.0462	0.0165	0.9585
54.825	17.0692	14.8994	-3.8487	-6.1081	11.8729	18.5639	31.5203	680.2257	-62.9211	233.7124	51.486	694.9168	-0.0592	0.0182	-0.0073	-0.0462	0.0165	0.9585
